<svg width="512" height="512" viewBox="0 0 512 512" fill="none" xmlns="http://www.w3.org/2000/svg">
<path d="M183.982 442.634C172.025 442.634 158.139 442.056 142.325 440.899C136.54 440.513 129.211 440.127 120.34 439.741C111.469 439.356 101.441 439.163 90.255 439.163L49.1772 439.741C41.8488 440.127 31.6276 440.32 18.5136 440.32C17.7422 440.32 17.3564 439.163 17.3564 436.849C17.3564 434.534 17.7422 433.377 18.5136 433.377C31.6276 433.377 41.0774 432.413 46.863 430.484C53.0343 428.556 57.2771 424.892 59.5913 419.492C61.9056 413.706 63.0627 405.028 63.0627 393.457V125.583C63.0627 114.012 61.9056 105.527 59.5913 100.127C57.6628 94.7267 53.6129 91.0625 47.4416 89.134C41.2703 86.8198 31.8204 85.6626 19.0921 85.6626C18.3207 85.6626 17.935 84.5055 17.935 82.1913C17.935 79.8771 18.3207 78.7199 19.0921 78.7199L49.7558 79.2985C66.7269 80.0699 80.2266 80.4556 90.255 80.4556C105.683 80.4556 121.304 79.877 137.118 78.7199C156.404 77.9485 169.325 77.5628 175.882 77.5628C215.224 77.5628 250.13 85.2769 280.601 100.705C311.072 116.133 334.6 137.154 351.186 163.768C368.157 190.382 376.642 220.274 376.642 253.445C376.642 290.859 367.964 324.029 350.607 352.957C333.25 381.5 309.915 403.678 280.601 419.492C251.288 434.92 219.081 442.634 183.982 442.634ZM178.196 431.063C204.81 431.063 228.338 424.699 248.78 411.97C269.609 399.242 285.808 380.535 297.38 355.85C308.951 330.779 314.736 300.887 314.736 266.173C314.736 233.003 309.144 203.11 297.958 176.497C287.158 149.497 271.73 128.283 251.673 112.855C231.617 97.041 208.281 89.134 181.668 89.134C165.468 89.134 152.932 90.0983 144.061 92.0268C135.19 93.9553 128.633 97.6196 124.39 103.019C120.533 108.034 118.604 115.941 118.604 126.74V387.092C118.604 402.906 122.654 414.285 130.754 421.227C138.854 427.784 154.668 431.063 178.196 431.063Z" fill="#1A1919"/>
<path d="M444.356 446.684C434.714 446.684 427 443.791 421.214 438.006C415.428 432.22 412.536 424.506 412.536 414.863C412.536 405.606 415.428 398.278 421.214 392.878C427 387.478 434.714 384.778 444.356 384.778C454.385 384.778 462.099 387.478 467.499 392.878C472.899 398.278 475.599 405.606 475.599 414.863C475.599 424.892 472.899 432.799 467.499 438.584C462.099 443.984 454.385 446.684 444.356 446.684Z" fill="#1A1919"/>
</svg>
